solid 2cm Pyramid ASCII
   facet normal 1.665335e-016 3.333333e-001 -9.428090e-001
      outer loop
         vertex 1.224740e+001 1.999992e+001 7.071038e+000
         vertex 2.449479e+001 0.000000e+000 0.000000e+000
         vertex 0.000000e+000 0.000000e+000 0.000000e+000
      endloop
   endfacet
   facet normal -8.164966e-001 3.333333e-001 4.714045e-001
      outer loop
         vertex 1.224740e+001 1.999992e+001 7.071038e+000
         vertex 0.000000e+000 0.000000e+000 0.000000e+000
         vertex 1.224740e+001 0.000000e+000 2.121311e+001
      endloop
   endfacet
   facet normal 8.164966e-001 3.333333e-001 4.714045e-001
      outer loop
         vertex 2.449479e+001 0.000000e+000 0.000000e+000
         vertex 1.224740e+001 1.999992e+001 7.071038e+000
         vertex 1.224740e+001 0.000000e+000 2.121311e+001
      endloop
   endfacet
   facet normal 3.885781e-016 -1.000000e+000 0.000000e+000
      outer loop
         vertex 2.449479e+001 0.000000e+000 0.000000e+000
         vertex 1.224740e+001 0.000000e+000 2.121311e+001
         vertex 0.000000e+000 0.000000e+000 0.000000e+000
      endloop
   endfacet
endsolid