solid 2cm Pyramid ASCII
   facet normal 5.773503e-001 5.773503e-001 -5.773503e-001
      outer loop
         vertex 0.000000e+000 1.414214e+001 0.000000e+000
         vertex 1.414214e+001 1.414214e+001 1.414214e+001
         vertex 1.414214e+001 0.000000e+000 0.000000e+000
      endloop
   endfacet
   facet normal -5.773503e-001 -5.773503e-001 -5.773503e-001
      outer loop
         vertex 0.000000e+000 1.414214e+001 0.000000e+000
         vertex 1.414214e+001 0.000000e+000 0.000000e+000
         vertex 0.000000e+000 0.000000e+000 1.414214e+001
      endloop
   endfacet
   facet normal -5.773503e-001 5.773503e-001 5.773503e-001
      outer loop
         vertex 1.414214e+001 1.414214e+001 1.414214e+001
         vertex 0.000000e+000 1.414214e+001 0.000000e+000
         vertex 0.000000e+000 0.000000e+000 1.414214e+001
      endloop
   endfacet
   facet normal 5.773503e-001 -5.773503e-001 5.773503e-001
      outer loop
         vertex 1.414214e+001 1.414214e+001 1.414214e+001
         vertex 0.000000e+000 0.000000e+000 1.414214e+001
         vertex 1.414214e+001 0.000000e+000 0.000000e+000
      endloop
   endfacet
endsolid